M48
;Layer_Color=9474304
;FILE_FORMAT=4:4
METRIC,LZ
;TYPE=PLATED
T01F00S00C0.3000
T03F00S00C1.1000
T04F00S00C1.3000
T05F00S00C1.6000
T06F00S00C2.5000
;TYPE=NON_PLATED
T07F00S00C0.6500
%
T01
X-00220751Y-00079649
X-00221062Y-00068516
X-0021416Y-00073894
X-00213767Y-00062134
X-0019351Y-0009525
X-001702Y-00079061
X-001524Y-0009017
X-0014426Y-0008278
X-0014434Y-00063233
X-0014343Y-0005453
X-00122105Y-0005707
Y-0006977
Y-0008247
X-00109405
X-00096705
Y-0006977
X-00109601Y-0006942
X-00109405Y-0005707
X-00097101Y-0005692
X-0007358Y-0005199
X-00055988Y-00068313
X-0000373Y-0004945
X-0000329Y-0009929
X-0000998Y-0018034
X-00132116Y-00166914
X-00116786Y-00137282
X-0013327Y-0004564
X-00125726Y-0001112
X-00104276Y-0002032
X-0019304Y-0004699
T03
X-00024326Y-0009776
Y-0007276
Y-0004776
X-00086626Y0001454
X-00111626
X-00136626
T04
X-00144126Y-0017526
Y-0013026
X-00079126
Y-0017526
T05
X-00174876Y-0012276
X-00048376
Y-0002276
X-00174876
T06
X-00237Y-00158
X-00005Y-00005
T07
X-0021353Y-0009994
Y-0004214
M30
