G04*
G04 #@! TF.GenerationSoftware,Altium Limited,DefaultClient, ()*
G04*
G04 Layer_Color=32896*
%FSLAX44Y44*%
%MOMM*%
G71*
G04*
G04 #@! TF.SameCoordinates,17B1D168-C64C-4368-B74A-C04FDEF24575*
G04*
G04*
G04 #@! TF.FilePolarity,Positive*
G04*
G01*
G75*
%ADD10C,0.2000*%
%ADD13C,0.1000*%
%ADD14C,0.0800*%
%ADD79C,0.2500*%
%ADD80C,0.1500*%
%ADD81C,0.0830*%
D10*
X-149696Y-20500D02*
G03*
X-149696Y-20500I-1000J0D01*
G01*
X-190380Y-57580D02*
X-175380D01*
X-190380Y-79580D02*
X-175380D01*
X-129456Y-154850D02*
Y-133850D01*
X-104456Y-154850D02*
Y-133850D01*
X-134336Y-44420D02*
X-131836D01*
X-134336Y-46920D02*
Y-44420D01*
X-86836D02*
X-84336D01*
Y-46920D02*
Y-44420D01*
X-134336Y-94420D02*
X-131836D01*
X-134336D02*
Y-91920D01*
X-86836Y-94420D02*
X-84336D01*
Y-91920D01*
X-237580Y-119690D02*
X-222780D01*
X-277080D02*
X-263080D01*
X-277080D02*
Y-22390D01*
X-237580D02*
X-222780D01*
X-277080D02*
X-263080D01*
D13*
X-112530Y-165100D02*
G03*
X-112530Y-165100I-500J0D01*
G01*
X-206740Y522D02*
X-208406Y-2810D01*
X-210072Y522D01*
X-211738Y-2810D02*
X-213405D01*
X-212571D01*
Y2188D01*
X-211738Y1355D01*
X-215904Y-2810D02*
Y-1977D01*
X-216737D01*
Y-2810D01*
X-215904D01*
X-220069Y1355D02*
X-220902Y2188D01*
X-222568D01*
X-223401Y1355D01*
Y-1977D01*
X-222568Y-2810D01*
X-220902D01*
X-220069Y-1977D01*
Y1355D01*
X-225067Y-311D02*
X-228400D01*
X-233398Y2188D02*
X-230066D01*
Y-2810D01*
X-233398D01*
X-230066Y-311D02*
X-231732D01*
X-238396Y1355D02*
X-237563Y2188D01*
X-235897D01*
X-235064Y1355D01*
Y522D01*
X-235897Y-311D01*
X-237563D01*
X-238396Y-1144D01*
Y-1977D01*
X-237563Y-2810D01*
X-235897D01*
X-235064Y-1977D01*
X-2810Y-90440D02*
X2188D01*
X522Y-88774D01*
X2188Y-87108D01*
X-2810D01*
Y-84609D02*
Y-82942D01*
X-1977Y-82109D01*
X-311D01*
X522Y-82942D01*
Y-84609D01*
X-311Y-85442D01*
X-1977D01*
X-2810Y-84609D01*
X2188Y-77111D02*
X-2810D01*
Y-79610D01*
X-1977Y-80443D01*
X-311D01*
X522Y-79610D01*
Y-77111D01*
X-2810Y-70447D02*
X2188D01*
X522Y-68780D01*
X2188Y-67114D01*
X-2810D01*
X1355Y-65448D02*
X2188Y-64615D01*
Y-62949D01*
X1355Y-62116D01*
X-1977D01*
X-2810Y-62949D01*
Y-64615D01*
X-1977Y-65448D01*
X1355D01*
X15285Y-117110D02*
Y-113778D01*
Y-115444D01*
X10286D01*
X13618Y-111279D02*
Y-109613D01*
X12785Y-108779D01*
X10286D01*
Y-111279D01*
X11119Y-112112D01*
X11952Y-111279D01*
Y-108779D01*
X13618Y-107113D02*
X10286D01*
X11952D01*
X12785Y-106280D01*
X13618Y-105447D01*
Y-104614D01*
X14451Y-101282D02*
X13618D01*
Y-102115D01*
Y-100449D01*
Y-101282D01*
X11119D01*
X10286Y-100449D01*
X13618Y-97116D02*
Y-95450D01*
X12785Y-94617D01*
X10286D01*
Y-97116D01*
X11119Y-97950D01*
X11952Y-97116D01*
Y-94617D01*
X13618Y-92951D02*
X10286D01*
X11952D01*
X12785Y-92118D01*
X13618Y-91285D01*
Y-90452D01*
Y-87953D02*
X11119D01*
X10286Y-87120D01*
Y-84621D01*
X13618D01*
X10286Y-82955D02*
Y-80455D01*
X11119Y-79622D01*
X11952Y-80455D01*
Y-82121D01*
X12785Y-82955D01*
X13618Y-82121D01*
Y-79622D01*
X15285Y-69626D02*
Y-71292D01*
Y-70459D01*
X11119D01*
X10286Y-71292D01*
Y-72125D01*
X11119Y-72958D01*
X10286Y-67126D02*
Y-65460D01*
X11119Y-64627D01*
X12785D01*
X13618Y-65460D01*
Y-67126D01*
X12785Y-67959D01*
X11119D01*
X10286Y-67126D01*
X13618Y-62961D02*
X11119D01*
X10286Y-62128D01*
Y-59629D01*
X9453D01*
X8620Y-60462D01*
Y-61295D01*
X10286Y-59629D02*
X13618D01*
X10286Y-57963D02*
Y-55464D01*
X11119Y-54630D01*
X11952Y-55464D01*
Y-57130D01*
X12785Y-57963D01*
X13618Y-57130D01*
Y-54630D01*
X14451Y-52131D02*
X13618D01*
Y-52964D01*
Y-51298D01*
Y-52131D01*
X11119D01*
X10286Y-51298D01*
Y-48799D02*
Y-47133D01*
Y-47966D01*
X13618D01*
Y-48799D01*
Y-41301D02*
Y-43801D01*
X12785Y-44634D01*
X11119D01*
X10286Y-43801D01*
Y-41301D01*
Y-39635D02*
X15285D01*
X11952D02*
X13618Y-37136D01*
X11952Y-39635D02*
X10286Y-37136D01*
X-205660Y-124441D02*
X-203161D01*
X-204410D01*
Y-130689D01*
X-203161Y-131939D01*
X-201911D01*
X-200662Y-130689D01*
X-208159Y-131939D02*
X-210658D01*
X-209409D01*
Y-124441D01*
X-208159Y-125691D01*
D14*
X-160835Y-90501D02*
Y-95499D01*
X-163334D01*
X-164167Y-94666D01*
Y-91334D01*
X-163334Y-90501D01*
X-160835D01*
X-168332Y-95499D02*
Y-90501D01*
X-165833Y-93000D01*
X-169165D01*
X-161331Y-69891D02*
X-157999D01*
Y-72390D01*
X-159665D01*
X-157999D01*
Y-74889D01*
X-162997Y-69891D02*
Y-74889D01*
X-166329D01*
X-167995D02*
X-169661D01*
X-168828D01*
Y-69891D01*
X-167995Y-70724D01*
X-160835Y-40501D02*
Y-45499D01*
X-163334D01*
X-164167Y-44666D01*
Y-41334D01*
X-163334Y-40501D01*
X-160835D01*
X-165833Y-41334D02*
X-166666Y-40501D01*
X-168332D01*
X-169165Y-41334D01*
Y-42167D01*
X-168332Y-43000D01*
X-167499D01*
X-168332D01*
X-169165Y-43833D01*
Y-44666D01*
X-168332Y-45499D01*
X-166666D01*
X-165833Y-44666D01*
X-160835Y-100501D02*
Y-105499D01*
X-163334D01*
X-164167Y-104666D01*
Y-101334D01*
X-163334Y-100501D01*
X-160835D01*
X-169165Y-105499D02*
X-165833D01*
X-169165Y-102167D01*
Y-101334D01*
X-168332Y-100501D01*
X-166666D01*
X-165833Y-101334D01*
X-97831Y-181132D02*
X-102829D01*
Y-178633D01*
X-101996Y-177800D01*
X-98664D01*
X-97831Y-178633D01*
Y-181132D01*
X-102829Y-176134D02*
Y-174468D01*
Y-175301D01*
X-97831D01*
X-98664Y-176134D01*
X-55404Y-61713D02*
X-54571Y-62546D01*
Y-64212D01*
X-55404Y-65045D01*
X-58736D01*
X-59569Y-64212D01*
Y-62546D01*
X-58736Y-61713D01*
X-55404Y-60047D02*
X-54571Y-59214D01*
Y-57548D01*
X-55404Y-56715D01*
X-56237D01*
X-57070Y-57548D01*
Y-58381D01*
Y-57548D01*
X-57903Y-56715D01*
X-58736D01*
X-59569Y-57548D01*
Y-59214D01*
X-58736Y-60047D01*
X-144866Y-57147D02*
X-145699Y-56314D01*
Y-54648D01*
X-144866Y-53815D01*
X-141534D01*
X-140701Y-54648D01*
Y-56314D01*
X-141534Y-57147D01*
X-140701Y-62145D02*
Y-58813D01*
X-144033Y-62145D01*
X-144866D01*
X-145699Y-61312D01*
Y-59646D01*
X-144866Y-58813D01*
X-112595Y-121881D02*
Y-126046D01*
X-113428Y-126879D01*
X-115094D01*
X-115927Y-126046D01*
Y-121881D01*
X-117593Y-122714D02*
X-118426Y-121881D01*
X-120092D01*
X-120925Y-122714D01*
Y-123547D01*
X-120092Y-124380D01*
X-119259D01*
X-120092D01*
X-120925Y-125213D01*
Y-126046D01*
X-120092Y-126879D01*
X-118426D01*
X-117593Y-126046D01*
X-134185Y-26631D02*
Y-30796D01*
X-135018Y-31629D01*
X-136684D01*
X-137517Y-30796D01*
Y-26631D01*
X-142515Y-31629D02*
X-139183D01*
X-142515Y-28297D01*
Y-27464D01*
X-141682Y-26631D01*
X-140016D01*
X-139183Y-27464D01*
X-135098Y-35601D02*
Y-39766D01*
X-135931Y-40599D01*
X-137597D01*
X-138430Y-39766D01*
Y-35601D01*
X-140096Y-40599D02*
X-141762D01*
X-140929D01*
Y-35601D01*
X-140096Y-36434D01*
X-160835Y-55499D02*
Y-50501D01*
X-163334D01*
X-164167Y-51334D01*
Y-53000D01*
X-163334Y-53833D01*
X-160835D01*
X-162501D02*
X-164167Y-55499D01*
X-169165Y-50501D02*
X-165833D01*
Y-53000D01*
X-167499Y-52167D01*
X-168332D01*
X-169165Y-53000D01*
Y-54666D01*
X-168332Y-55499D01*
X-166666D01*
X-165833Y-54666D01*
X-160835Y-86499D02*
Y-81501D01*
X-163334D01*
X-164167Y-82334D01*
Y-84000D01*
X-163334Y-84833D01*
X-160835D01*
X-162501D02*
X-164167Y-86499D01*
X-168332D02*
Y-81501D01*
X-165833Y-84000D01*
X-169165D01*
X-110135Y-185379D02*
Y-180381D01*
X-112634D01*
X-113467Y-181214D01*
Y-182880D01*
X-112634Y-183713D01*
X-110135D01*
X-111801D02*
X-113467Y-185379D01*
X-115133Y-181214D02*
X-115966Y-180381D01*
X-117632D01*
X-118465Y-181214D01*
Y-182047D01*
X-117632Y-182880D01*
X-116799D01*
X-117632D01*
X-118465Y-183713D01*
Y-184546D01*
X-117632Y-185379D01*
X-115966D01*
X-115133Y-184546D01*
X-124105Y-185379D02*
Y-180381D01*
X-126604D01*
X-127437Y-181214D01*
Y-182880D01*
X-126604Y-183713D01*
X-124105D01*
X-125771D02*
X-127437Y-185379D01*
X-132435D02*
X-129103D01*
X-132435Y-182047D01*
Y-181214D01*
X-131602Y-180381D01*
X-129936D01*
X-129103Y-181214D01*
X-151528Y5201D02*
Y10199D01*
X-154027D01*
X-154860Y9366D01*
Y7700D01*
X-154027Y6867D01*
X-151528D01*
X-153194D02*
X-154860Y5201D01*
X-156526D02*
X-158192D01*
X-157359D01*
Y10199D01*
X-156526Y9366D01*
X-92757Y-162801D02*
X-93590Y-161968D01*
Y-160302D01*
X-92757Y-159469D01*
X-89424D01*
X-88591Y-160302D01*
Y-161968D01*
X-89424Y-162801D01*
X-93590Y-164468D02*
Y-167800D01*
X-92757D01*
X-89424Y-164468D01*
X-88591D01*
X-93067Y-9684D02*
X-92234Y-8851D01*
X-90568D01*
X-89735Y-9684D01*
Y-13016D01*
X-90568Y-13849D01*
X-92234D01*
X-93067Y-13016D01*
X-98065Y-8851D02*
X-94733D01*
Y-11350D01*
X-96399Y-10517D01*
X-97232D01*
X-98065Y-11350D01*
Y-13016D01*
X-97232Y-13849D01*
X-95566D01*
X-94733Y-13016D01*
X-160336Y-13057D02*
X-161169Y-12224D01*
Y-10558D01*
X-160336Y-9725D01*
X-157004D01*
X-156171Y-10558D01*
Y-12224D01*
X-157004Y-13057D01*
X-156171Y-17222D02*
X-161169D01*
X-158670Y-14723D01*
Y-18055D01*
X-144216Y-77910D02*
X-145049Y-77077D01*
Y-75411D01*
X-144216Y-74578D01*
X-140884D01*
X-140051Y-75411D01*
Y-77077D01*
X-140884Y-77910D01*
X-140051Y-79576D02*
Y-81242D01*
Y-80409D01*
X-145049D01*
X-144216Y-79576D01*
D79*
X-161768Y-63580D02*
G03*
X-161768Y-63580I-1250J0D01*
G01*
X-109206Y-165371D02*
G03*
X-109206Y-165371I-1250J0D01*
G01*
X-125586Y-32067D02*
G03*
X-125586Y-32067I-1250J0D01*
G01*
X-190280Y-103690D02*
G03*
X-190280Y-103690I-1250J0D01*
G01*
D80*
X-154420Y-3500D02*
Y500D01*
D81*
X-93067Y-27464D02*
X-92234Y-26631D01*
X-90568D01*
X-89735Y-27464D01*
Y-30796D01*
X-90568Y-31629D01*
X-92234D01*
X-93067Y-30796D01*
X-98065Y-26631D02*
X-96399Y-27464D01*
X-94733Y-29130D01*
Y-30796D01*
X-95566Y-31629D01*
X-97232D01*
X-98065Y-30796D01*
Y-29963D01*
X-97232Y-29130D01*
X-94733D01*
M02*
