G04*
G04 #@! TF.GenerationSoftware,Altium Limited,DefaultClient, ()*
G04*
G04 Layer_Color=255*
%FSLAX44Y44*%
%MOMM*%
G71*
G04*
G04 #@! TF.SameCoordinates,17B1D168-C64C-4368-B74A-C04FDEF24575*
G04*
G04*
G04 #@! TF.FilePolarity,Positive*
G04*
G01*
G75*
%ADD15R,0.8000X0.8000*%
%ADD16R,1.0000X0.7500*%
%ADD17R,0.5500X0.5500*%
G04:AMPARAMS|DCode=21|XSize=1mm|YSize=2.1mm|CornerRadius=0.5mm|HoleSize=0mm|Usage=FLASHONLY|Rotation=90.000|XOffset=0mm|YOffset=0mm|HoleType=Round|Shape=RoundedRectangle|*
%AMROUNDEDRECTD21*
21,1,1.0000,1.1000,0,0,90.0*
21,1,0.0000,2.1000,0,0,90.0*
1,1,1.0000,0.5500,0.0000*
1,1,1.0000,0.5500,0.0000*
1,1,1.0000,-0.5500,0.0000*
1,1,1.0000,-0.5500,0.0000*
%
%ADD21ROUNDEDRECTD21*%
%ADD23C,0.6500*%
G04:AMPARAMS|DCode=24|XSize=1mm|YSize=1.8mm|CornerRadius=0.5mm|HoleSize=0mm|Usage=FLASHONLY|Rotation=90.000|XOffset=0mm|YOffset=0mm|HoleType=Round|Shape=RoundedRectangle|*
%AMROUNDEDRECTD24*
21,1,1.0000,0.8000,0,0,90.0*
21,1,0.0000,1.8000,0,0,90.0*
1,1,1.0000,0.4000,0.0000*
1,1,1.0000,0.4000,0.0000*
1,1,1.0000,-0.4000,0.0000*
1,1,1.0000,-0.4000,0.0000*
%
%ADD24ROUNDEDRECTD24*%
%ADD31C,5.0000*%
%ADD32C,1.9500*%
%ADD33C,2.4000*%
%ADD34C,1.6500*%
%ADD35R,1.6500X1.6500*%
D15*
X-17500Y-180000D02*
D03*
X-32500D02*
D03*
X-40000Y-165000D02*
D03*
X-25000D02*
D03*
X-10000D02*
D03*
X19450Y-99290D02*
D03*
X4450D02*
D03*
X19450Y-73890D02*
D03*
X4450D02*
D03*
X19450Y-49760D02*
D03*
X4450D02*
D03*
D16*
X-249348Y9478D02*
D03*
Y-11858D02*
D03*
X-207692D02*
D03*
Y9478D02*
D03*
D17*
X18990Y-89130D02*
D03*
X9990D02*
D03*
X18990Y-63730D02*
D03*
X9990D02*
D03*
X18990Y-39600D02*
D03*
X9990D02*
D03*
D21*
X-208530Y-27840D02*
D03*
Y-114240D02*
D03*
D23*
X-213530Y-42140D02*
D03*
Y-99940D02*
D03*
D24*
X-250330Y-27840D02*
D03*
Y-114240D02*
D03*
D31*
X-5000Y-5000D02*
D03*
X-237000Y-158000D02*
D03*
D32*
X-79126Y-175260D02*
D03*
Y-130260D02*
D03*
X-144126Y-175260D02*
D03*
Y-130260D02*
D03*
D33*
X-48376Y-122760D02*
D03*
X-174876D02*
D03*
Y-22760D02*
D03*
X-48376D02*
D03*
D34*
X-24326Y-47760D02*
D03*
Y-72760D02*
D03*
X-136626Y14540D02*
D03*
X-111626D02*
D03*
X-86626D02*
D03*
D35*
X-24326Y-97760D02*
D03*
M02*
