G04*
G04 #@! TF.GenerationSoftware,Altium Limited,DefaultClient, ()*
G04*
G04 Layer_Color=65535*
%FSLAX44Y44*%
%MOMM*%
G71*
G04*
G04 #@! TF.SameCoordinates,17B1D168-C64C-4368-B74A-C04FDEF24575*
G04*
G04*
G04 #@! TF.FilePolarity,Positive*
G04*
G01*
G75*
%ADD10C,0.2000*%
%ADD11C,0.1270*%
%ADD12C,0.4000*%
%ADD13C,0.1000*%
%ADD14C,0.0800*%
D10*
X-259820Y-11940D02*
G03*
X-259820Y-11940I-1000J0D01*
G01*
X-6126Y-97760D02*
G03*
X-6126Y-97760I-1000J0D01*
G01*
D11*
X-242885Y-17190D02*
X-214155D01*
X-242885Y14810D02*
X-214155D01*
X-249520Y-5055D02*
Y2675D01*
X-207520Y-5055D02*
Y2675D01*
X-17626Y-37260D02*
Y-25260D01*
X-32626D02*
X-17626D01*
X-33126Y-120260D02*
X-17626D01*
Y-110760D01*
X-68626Y-138510D02*
X-46126D01*
X-68626Y-164260D02*
Y-138510D01*
X-154626Y-188760D02*
X-68626D01*
X-154626Y-164260D02*
Y-138510D01*
X-177376D02*
X-154626D01*
X-64126Y-7010D02*
X-45876D01*
X-64126D02*
Y21240D01*
X-75126D02*
X-64126D01*
X-187626Y-110860D02*
Y-34660D01*
X-177376Y-7010D02*
X-159126D01*
Y21240D01*
X-148126D01*
D12*
X28450Y-103290D02*
Y-95290D01*
Y-77890D02*
Y-69890D01*
Y-53760D02*
Y-45760D01*
D13*
X-9929Y-180721D02*
X-6596D01*
X-8263Y-179055D02*
Y-182387D01*
X-4930Y-179055D02*
X-4097Y-178221D01*
X-2431D01*
X-1598Y-179055D01*
Y-179888D01*
X-2431Y-180721D01*
X-3264D01*
X-2431D01*
X-1598Y-181554D01*
Y-182387D01*
X-2431Y-183220D01*
X-4097D01*
X-4930Y-182387D01*
X68Y-178221D02*
Y-181554D01*
X1734Y-183220D01*
X3400Y-181554D01*
Y-178221D01*
X5066Y-179055D02*
X5900Y-178221D01*
X7566D01*
X8399Y-179055D01*
Y-179888D01*
X7566Y-180721D01*
X6733D01*
X7566D01*
X8399Y-181554D01*
Y-182387D01*
X7566Y-183220D01*
X5900D01*
X5066Y-182387D01*
X-49776Y-179055D02*
X-50609Y-178221D01*
X-52276D01*
X-53109Y-179055D01*
Y-182387D01*
X-52276Y-183220D01*
X-50609D01*
X-49776Y-182387D01*
Y-180721D01*
X-51443D01*
X-48110Y-183220D02*
Y-178221D01*
X-44778Y-183220D01*
Y-178221D01*
X-43112D02*
Y-183220D01*
X-40613D01*
X-39780Y-182387D01*
Y-179055D01*
X-40613Y-178221D01*
X-43112D01*
X-54088Y-142592D02*
X-55754D01*
X-54921D01*
Y-146757D01*
X-55754Y-147590D01*
X-56587D01*
X-57420Y-146757D01*
X-52422Y-142592D02*
X-49089D01*
X-50756D01*
Y-147590D01*
X-47423D02*
Y-144258D01*
X-45757Y-142592D01*
X-44091Y-144258D01*
Y-147590D01*
Y-145091D01*
X-47423D01*
X-39093Y-143425D02*
X-39926Y-142592D01*
X-41592D01*
X-42425Y-143425D01*
Y-146757D01*
X-41592Y-147590D01*
X-39926D01*
X-39093Y-146757D01*
Y-145091D01*
X-40759D01*
X-32428Y-142592D02*
X-30762D01*
X-31595D01*
Y-147590D01*
X-32428D01*
X-30762D01*
X-28263D02*
Y-144258D01*
X-25764D01*
X-24931Y-145091D01*
Y-147590D01*
X-22431Y-143425D02*
Y-144258D01*
X-23265D01*
X-21598D01*
X-22431D01*
Y-146757D01*
X-21598Y-147590D01*
X-16600D02*
X-18266D01*
X-19099Y-146757D01*
Y-145091D01*
X-18266Y-144258D01*
X-16600D01*
X-15767Y-145091D01*
Y-145924D01*
X-19099D01*
X-14101Y-144258D02*
Y-147590D01*
Y-145924D01*
X-13268Y-145091D01*
X-12435Y-144258D01*
X-11602D01*
X-8269Y-147590D02*
Y-143425D01*
Y-145091D01*
X-9102D01*
X-7436D01*
X-8269D01*
Y-143425D01*
X-7436Y-142592D01*
X-4104Y-144258D02*
X-2438D01*
X-1605Y-145091D01*
Y-147590D01*
X-4104D01*
X-4937Y-146757D01*
X-4104Y-145924D01*
X-1605D01*
X3393Y-144258D02*
X894D01*
X61Y-145091D01*
Y-146757D01*
X894Y-147590D01*
X3393D01*
X7559D02*
X5893D01*
X5060Y-146757D01*
Y-145091D01*
X5893Y-144258D01*
X7559D01*
X8392Y-145091D01*
Y-145924D01*
X5060D01*
X-28186Y-153654D02*
X-29019Y-152821D01*
X-30686D01*
X-31519Y-153654D01*
Y-154487D01*
X-30686Y-155321D01*
X-29019D01*
X-28186Y-156154D01*
Y-156987D01*
X-29019Y-157820D01*
X-30686D01*
X-31519Y-156987D01*
X-26520Y-152821D02*
Y-157820D01*
X-24854Y-156154D01*
X-23188Y-157820D01*
Y-152821D01*
X-18190Y-153654D02*
X-19023Y-152821D01*
X-20689D01*
X-21522Y-153654D01*
Y-156987D01*
X-20689Y-157820D01*
X-19023D01*
X-18190Y-156987D01*
X2625Y-160542D02*
X3458Y-159709D01*
Y-158043D01*
X2625Y-157210D01*
X1792D01*
X959Y-158043D01*
Y-159709D01*
X126Y-160542D01*
X-707D01*
X-1540Y-159709D01*
Y-158043D01*
X-707Y-157210D01*
X3458Y-162208D02*
X-1540D01*
X126Y-163874D01*
X-1540Y-165541D01*
X3458D01*
Y-167207D02*
X-1540D01*
Y-169706D01*
X-707Y-170539D01*
X2625D01*
X3458Y-169706D01*
Y-167207D01*
X-47990Y-170450D02*
X-52988D01*
Y-167951D01*
X-52155Y-167118D01*
X-50489D01*
X-49656Y-167951D01*
Y-170450D01*
Y-168784D02*
X-47990Y-167118D01*
X-52155Y-162119D02*
X-52988Y-162952D01*
Y-164619D01*
X-52155Y-165452D01*
X-51322D01*
X-50489Y-164619D01*
Y-162952D01*
X-49656Y-162119D01*
X-48823D01*
X-47990Y-162952D01*
Y-164619D01*
X-48823Y-165452D01*
X-52988Y-160453D02*
Y-157121D01*
Y-158787D01*
X-47990D01*
D14*
X-193914Y2499D02*
X-193081Y3332D01*
Y4998D01*
X-193914Y5831D01*
X-194747D01*
X-195580Y4998D01*
Y3332D01*
X-196413Y2499D01*
X-197246D01*
X-198079Y3332D01*
Y4998D01*
X-197246Y5831D01*
X-193081Y833D02*
X-198079D01*
X-196413Y-833D01*
X-198079Y-2499D01*
X-193081D01*
X-198079Y-4165D02*
Y-5831D01*
Y-4998D01*
X-193081D01*
X-193914Y-4165D01*
X-174265Y5119D02*
Y954D01*
X-173432Y121D01*
X-171766D01*
X-170933Y954D01*
Y5119D01*
X-166768Y121D02*
Y5119D01*
X-169267Y2620D01*
X-165935D01*
X-4165Y-93939D02*
Y-88941D01*
X-1666D01*
X-833Y-89774D01*
Y-91440D01*
X-1666Y-92273D01*
X-4165D01*
X-2499D02*
X-833Y-93939D01*
X833Y-89774D02*
X1666Y-88941D01*
X3332D01*
X4165Y-89774D01*
Y-90607D01*
X3332Y-91440D01*
X4165Y-92273D01*
Y-93106D01*
X3332Y-93939D01*
X1666D01*
X833Y-93106D01*
Y-92273D01*
X1666Y-91440D01*
X833Y-90607D01*
Y-89774D01*
X1666Y-91440D02*
X3332D01*
X-4085Y-39249D02*
Y-34251D01*
X-1586D01*
X-753Y-35084D01*
Y-36750D01*
X-1586Y-37583D01*
X-4085D01*
X-2419D02*
X-753Y-39249D01*
X913Y-34251D02*
X4245D01*
Y-35084D01*
X913Y-38416D01*
Y-39249D01*
X-4085Y-64649D02*
Y-59651D01*
X-1586D01*
X-753Y-60484D01*
Y-62150D01*
X-1586Y-62983D01*
X-4085D01*
X-2419D02*
X-753Y-64649D01*
X4245Y-59651D02*
X2579Y-60484D01*
X913Y-62150D01*
Y-63816D01*
X1746Y-64649D01*
X3412D01*
X4245Y-63816D01*
Y-62983D01*
X3412Y-62150D01*
X913D01*
X4845Y-106641D02*
Y-111639D01*
X7345D01*
X8178Y-110806D01*
Y-107474D01*
X7345Y-106641D01*
X4845D01*
X13176Y-107474D02*
X12343Y-106641D01*
X10677D01*
X9844Y-107474D01*
Y-108307D01*
X10677Y-109140D01*
X12343D01*
X13176Y-109973D01*
Y-110806D01*
X12343Y-111639D01*
X10677D01*
X9844Y-110806D01*
X14842Y-107474D02*
X15675Y-106641D01*
X17341D01*
X18175Y-107474D01*
Y-108307D01*
X17341Y-109140D01*
X16508D01*
X17341D01*
X18175Y-109973D01*
Y-110806D01*
X17341Y-111639D01*
X15675D01*
X14842Y-110806D01*
X-8769Y-56115D02*
X-3771D01*
Y-53615D01*
X-4604Y-52782D01*
X-7936D01*
X-8769Y-53615D01*
Y-56115D01*
X-7936Y-47784D02*
X-8769Y-48617D01*
Y-50283D01*
X-7936Y-51116D01*
X-7103D01*
X-6270Y-50283D01*
Y-48617D01*
X-5437Y-47784D01*
X-4604D01*
X-3771Y-48617D01*
Y-50283D01*
X-4604Y-51116D01*
X-3771Y-42786D02*
Y-46118D01*
X-7103Y-42786D01*
X-7936D01*
X-8769Y-43619D01*
Y-45285D01*
X-7936Y-46118D01*
X-8769Y-80681D02*
X-3771D01*
Y-78182D01*
X-4604Y-77349D01*
X-7936D01*
X-8769Y-78182D01*
Y-80681D01*
X-7936Y-72351D02*
X-8769Y-73184D01*
Y-74850D01*
X-7936Y-75683D01*
X-7103D01*
X-6270Y-74850D01*
Y-73184D01*
X-5437Y-72351D01*
X-4604D01*
X-3771Y-73184D01*
Y-74850D01*
X-4604Y-75683D01*
X-3771Y-70685D02*
Y-69019D01*
Y-69852D01*
X-8769D01*
X-7936Y-70685D01*
M02*
